<?xml version="1.0" standalone="no"?><!DOCTYPE svg PUBLIC "-//W3C//DTD SVG 1.1//EN" "http://www.w3.org/Graphics/SVG/1.1/DTD/svg11.dtd"><svg t="1615183607457" class="icon" viewBox="0 0 1024 1024" version="1.1" xmlns="http://www.w3.org/2000/svg" p-id="2970" xmlns:xlink="http://www.w3.org/1999/xlink" width="200" height="200"><defs><style type="text/css"></style></defs><path d="M124.416 7.168C70.144 24.576 28.672 62.464 10.24 111.104 0.512 137.728 0 150.528 0 512c0 363.008 0.512 374.272 10.24 401.408 14.848 38.912 45.056 71.168 86.016 91.136l34.304 16.896h762.88l34.304-16.896c36.864-17.92 63.488-46.08 82.432-86.528l11.264-24.576V130.56l-11.264-24.576c-18.944-40.448-45.568-68.608-82.432-86.528L893.44 2.56 519.68 1.536c-299.008-1.024-377.856 0.512-395.264 5.632z m655.872 264.704l13.312 10.24v194.56c0 188.928-0.512 194.56-10.24 203.264-8.704 7.168-25.088 9.216-106.496 11.264l-95.744 2.56v30.72l34.816 1.536 34.304 1.536v35.328H363.52v-17.92c0-19.456-1.024-18.944 42.496-17.92l29.184 0.512V691.2H341.504c-76.288 0-95.744-1.536-104.96-8.192l-11.264-7.68V478.72c0-195.584 0-196.608 11.264-207.36 10.752-10.24 16.384-10.24 270.848-10.24s259.584 0 272.896 10.752z" p-id="2971" fill="#bfbfbf"></path><path d="M261.12 440.32v143.36h496.64l-1.024-142.336L755.2 299.52l-246.784-1.536-247.296-1.024v143.36z m436.224-103.936c17.92 15.872 7.68 51.712-15.36 53.248-4.608 0.512-12.288 1.024-16.896 1.536C652.8 392.192 568.32 473.6 565.76 486.4c-1.024 6.656-6.144 15.872-10.752 20.992-19.456 21.504-56.32 2.56-52.224-26.624 3.072-21.504-17.92-45.056-43.008-46.592-15.872-1.536-24.064 2.56-52.224 24.064-22.528 17.408-33.28 29.184-33.792 36.864 0 11.264-22.016 32.256-33.28 32.256-9.728 0-26.624-16.384-30.72-29.184-4.608-16.384 18.944-39.424 36.352-35.84 9.216 1.536 19.968-3.072 37.376-16.384 45.056-34.304 51.712-40.448 51.712-48.64 0-4.096 5.12-12.8 11.264-18.432 20.992-19.456 50.176-3.584 50.176 27.648 0 19.456 27.136 49.152 45.056 49.152 17.408 0 103.424-80.384 103.424-96.768 0-27.136 31.744-40.96 52.224-22.528z" p-id="2972" fill="#bfbfbf"></path></svg>